<svg width="150" height="29" viewBox="0 0 150 29" fill="none" xmlns="http://www.w3.org/2000/svg">
<g clip-path="url(#clip0_139_831)">
<path d="M7.96449 27.9972C6.47301 27.9972 5.12216 27.6136 3.91193 26.8466C2.71023 26.071 1.75568 24.9332 1.0483 23.4332C0.349432 21.9247 0 20.0753 0 17.8849C0 15.6349 0.362216 13.7642 1.08665 12.2727C1.81108 10.7727 2.77415 9.65199 3.97585 8.91051C5.18608 8.16051 6.51136 7.78551 7.9517 7.78551C9.05114 7.78551 9.96733 7.97301 10.7003 8.34801C11.4418 8.71449 12.0384 9.17472 12.4901 9.72869C12.9503 10.2741 13.2997 10.8111 13.5384 11.3395H13.7045V1.49574H19.1378V27.6776H13.7685V24.5327H13.5384C13.2827 25.0781 12.9205 25.6193 12.4517 26.1563C11.9915 26.6847 11.3906 27.1236 10.6491 27.473C9.91619 27.8224 9.02131 27.9972 7.96449 27.9972ZM9.69034 23.6634C10.5682 23.6634 11.3097 23.4247 11.9148 22.9474C12.5284 22.4616 12.9972 21.7841 13.321 20.9148C13.6534 20.0455 13.8196 19.027 13.8196 17.8594C13.8196 16.6918 13.6577 15.6776 13.3338 14.8168C13.0099 13.956 12.5412 13.2912 11.9276 12.8224C11.3139 12.3537 10.5682 12.1193 9.69034 12.1193C8.79546 12.1193 8.04119 12.3622 7.42756 12.848C6.81392 13.3338 6.34943 14.0071 6.03409 14.8679C5.71875 15.7287 5.56108 16.7259 5.56108 17.8594C5.56108 19.0014 5.71875 20.0114 6.03409 20.8892C6.35795 21.7585 6.82244 22.4403 7.42756 22.9347C8.04119 23.4205 8.79546 23.6634 9.69034 23.6634Z" fill="white"/>
<path d="M34.06 8.04119V12.1321H22.2347V8.04119H34.06ZM24.9194 3.33665H30.3654V21.6435C30.3654 22.1463 30.4421 22.5384 30.5955 22.8196C30.7489 23.0923 30.962 23.2841 31.2347 23.3949C31.516 23.5057 31.8398 23.5611 32.2063 23.5611C32.462 23.5611 32.7177 23.5398 32.9734 23.4972C33.229 23.446 33.4251 23.4077 33.5614 23.3821L34.418 27.4347C34.1452 27.5199 33.7617 27.6179 33.2674 27.7287C32.7731 27.848 32.1722 27.9205 31.4648 27.946C30.1523 27.9972 29.0018 27.8224 28.0131 27.4219C27.033 27.0213 26.2702 26.3991 25.7248 25.5554C25.1793 24.7116 24.9109 23.6463 24.9194 22.3594V3.33665Z" fill="white"/>
<path d="M37.6076 27.6776V8.04119H42.8874V11.4673H43.092C43.4499 10.2486 44.0508 9.32813 44.8945 8.70597C45.7383 8.07529 46.7099 7.75994 47.8093 7.75994C48.082 7.75994 48.3761 7.77699 48.6914 7.81108C49.0067 7.84517 49.2837 7.89205 49.5224 7.9517V12.7841C49.2667 12.7074 48.913 12.6392 48.4613 12.5795C48.0096 12.5199 47.5962 12.4901 47.2212 12.4901C46.4201 12.4901 45.7042 12.6648 45.0735 13.0142C44.4514 13.3551 43.957 13.8324 43.5906 14.446C43.2326 15.0597 43.0536 15.767 43.0536 16.5682V27.6776H37.6076Z" fill="white"/>
<path d="M52.3381 27.6776V8.04119H57.7841V27.6776H52.3381ZM55.0739 5.50994C54.2642 5.50994 53.5696 5.24148 52.9901 4.70455C52.419 4.15909 52.1335 3.5071 52.1335 2.74858C52.1335 1.99858 52.419 1.35511 52.9901 0.818183C53.5696 0.272728 54.2642 0 55.0739 0C55.8835 0 56.5739 0.272728 57.1449 0.818183C57.7244 1.35511 58.0142 1.99858 58.0142 2.74858C58.0142 3.5071 57.7244 4.15909 57.1449 4.70455C56.5739 5.24148 55.8835 5.50994 55.0739 5.50994Z" fill="white"/>
<path d="M72.5913 8.04119V12.1321H57.7841V8.04119H72.5913ZM63.4506 3.33665H68.8967V21.6435C68.8967 22.1463 68.9734 22.5384 69.1268 22.8196C69.2802 23.0923 69.4933 23.2841 69.766 23.3949C70.0472 23.5057 70.3711 23.5611 70.7376 23.5611C70.9933 23.5611 71.2489 23.5398 71.5046 23.4972C71.7603 23.446 71.9563 23.4077 72.0927 23.3821L72.9492 27.4347C72.6765 27.5199 72.293 27.6179 71.7987 27.7287C71.3043 27.848 70.7035 27.9205 69.9961 27.946C68.6836 27.9972 67.533 27.8224 66.5444 27.4219C65.5643 27.0213 64.8015 26.3991 64.256 25.5554C63.7106 24.7116 63.4421 23.6463 63.4506 22.3594V3.33665Z" fill="white"/>
<path d="M80.7383 28.0483C79.4854 28.0483 78.369 27.831 77.3888 27.3963C76.4087 26.9531 75.6332 26.3011 75.0621 25.4403C74.4996 24.571 74.2184 23.4886 74.2184 22.1932C74.2184 21.1023 74.4187 20.1861 74.8192 19.4446C75.2198 18.7031 75.7653 18.1065 76.4556 17.6548C77.146 17.2031 77.93 16.8622 78.8079 16.6321C79.6942 16.402 80.6232 16.2401 81.5948 16.1463C82.7369 16.027 83.6573 15.9162 84.3562 15.8139C85.055 15.7031 85.5621 15.5412 85.8775 15.3281C86.1928 15.1151 86.3505 14.7997 86.3505 14.3821V14.3054C86.3505 13.4957 86.0948 12.8693 85.5835 12.4261C85.0806 11.983 84.3647 11.7614 83.4357 11.7614C82.4556 11.7614 81.6758 11.9787 81.0962 12.4134C80.5167 12.8395 80.1332 13.3764 79.9457 14.0241L74.9087 13.6151C75.1644 12.4219 75.6673 11.3906 76.4173 10.5213C77.1673 9.64347 78.1346 8.97017 79.3192 8.50142C80.5124 8.02415 81.8931 7.78551 83.4613 7.78551C84.5522 7.78551 85.5962 7.91335 86.5934 8.16903C87.5991 8.42472 88.4897 8.82102 89.2653 9.35795C90.0494 9.89489 90.6673 10.5852 91.119 11.429C91.5707 12.2642 91.7965 13.2656 91.7965 14.4332V27.6776H86.6317V24.9545H86.4783C86.163 25.5682 85.7411 26.1094 85.2127 26.5781C84.6843 27.0384 84.0494 27.4006 83.3079 27.6648C82.5664 27.9205 81.7099 28.0483 80.7383 28.0483ZM82.2979 24.2898C83.0991 24.2898 83.8065 24.1321 84.4201 23.8168C85.0337 23.4929 85.5153 23.0582 85.8647 22.5128C86.2141 21.9673 86.3888 21.3494 86.3888 20.6591V18.5753C86.2184 18.6861 85.984 18.7884 85.6857 18.8821C85.3959 18.9673 85.0678 19.0483 84.7013 19.125C84.3349 19.1932 83.9684 19.2571 83.6019 19.3168C83.2354 19.3679 82.9031 19.4148 82.6048 19.4574C81.9656 19.5511 81.4073 19.7003 80.93 19.9048C80.4528 20.1094 80.082 20.3864 79.8178 20.7358C79.5536 21.0767 79.4215 21.5028 79.4215 22.0142C79.4215 22.7557 79.69 23.3224 80.2269 23.7145C80.7724 24.098 81.4627 24.2898 82.2979 24.2898Z" fill="white"/>
<path d="M91.0217 27.6776V8.04119H96.212V11.5057H96.4421C96.8512 10.3551 97.533 9.44744 98.4876 8.78267C99.4421 8.1179 100.584 7.78551 101.914 7.78551C103.26 7.78551 104.407 8.12216 105.353 8.79545C106.299 9.46023 106.929 10.3636 107.245 11.5057H107.449C107.85 10.3807 108.574 9.48153 109.623 8.80824C110.679 8.12642 111.928 7.78551 113.368 7.78551C115.201 7.78551 116.688 8.36932 117.83 9.53693C118.98 10.696 119.556 12.3409 119.556 14.4716V27.6776H114.123V15.5455C114.123 14.4545 113.833 13.6364 113.253 13.0909C112.674 12.5455 111.949 12.2727 111.08 12.2727C110.091 12.2727 109.32 12.5881 108.766 13.2188C108.212 13.8409 107.935 14.6634 107.935 15.6861V27.6776H102.655V15.4304C102.655 14.4673 102.378 13.7003 101.824 13.1293C101.279 12.5582 100.559 12.2727 99.6637 12.2727C99.0586 12.2727 98.5131 12.4261 98.0273 12.733C97.5501 13.0313 97.1708 13.4531 96.8896 13.9986C96.6083 14.5355 96.4677 15.1662 96.4677 15.8906V27.6776H91.0217Z" fill="white"/>
<path d="M129.457 28.0483C128.204 28.0483 127.088 27.831 126.108 27.3963C125.127 26.9531 124.352 26.3011 123.781 25.4403C123.218 24.571 122.937 23.4886 122.937 22.1932C122.937 21.1023 123.137 20.1861 123.538 19.4446C123.939 18.7031 124.484 18.1065 125.174 17.6548C125.865 17.2031 126.649 16.8622 127.527 16.6321C128.413 16.402 129.342 16.2401 130.314 16.1463C131.456 16.027 132.376 15.9162 133.075 15.8139C133.774 15.7031 134.281 15.5412 134.596 15.3281C134.912 15.1151 135.069 14.7997 135.069 14.3821V14.3054C135.069 13.4957 134.814 12.8693 134.302 12.4261C133.799 11.983 133.083 11.7614 132.154 11.7614C131.174 11.7614 130.395 11.9787 129.815 12.4134C129.235 12.8395 128.852 13.3764 128.664 14.0241L123.627 13.6151C123.883 12.4219 124.386 11.3906 125.136 10.5213C125.886 9.64347 126.853 8.97017 128.038 8.50142C129.231 8.02415 130.612 7.78551 132.18 7.78551C133.271 7.78551 134.315 7.91335 135.312 8.16903C136.318 8.42472 137.208 8.82102 137.984 9.35795C138.768 9.89489 139.386 10.5852 139.838 11.429C140.289 12.2642 140.515 13.2656 140.515 14.4332V27.6776H135.35V24.9545H135.197C134.882 25.5682 134.46 26.1094 133.931 26.5781C133.403 27.0384 132.768 27.4006 132.027 27.6648C131.285 27.9205 130.429 28.0483 129.457 28.0483ZM131.017 24.2898C131.818 24.2898 132.525 24.1321 133.139 23.8168C133.752 23.4929 134.234 23.0582 134.583 22.5128C134.933 21.9673 135.108 21.3494 135.108 20.6591V18.5753C134.937 18.6861 134.703 18.7884 134.404 18.8821C134.115 18.9673 133.787 19.0483 133.42 19.125C133.054 19.1932 132.687 19.2571 132.321 19.3168C131.954 19.3679 131.622 19.4148 131.324 19.4574C130.684 19.5511 130.126 19.7003 129.649 19.9048C129.172 20.1094 128.801 20.3864 128.537 20.7358C128.272 21.0767 128.14 21.5028 128.14 22.0142C128.14 22.7557 128.409 23.3224 128.946 23.7145C129.491 24.098 130.181 24.2898 131.017 24.2898Z" fill="white"/>
<path d="M145.924 28.0099C145.08 28.0099 144.355 27.7116 143.75 27.1151C143.154 26.5099 142.855 25.7855 142.855 24.9418C142.855 24.1065 143.154 23.3906 143.75 22.794C144.355 22.1974 145.08 21.8991 145.924 21.8991C146.742 21.8991 147.458 22.1974 148.071 22.794C148.685 23.3906 148.992 24.1065 148.992 24.9418C148.992 25.5043 148.847 26.0199 148.557 26.4886C148.276 26.9489 147.905 27.3196 147.445 27.6009C146.985 27.8736 146.478 28.0099 145.924 28.0099Z" fill="white"/>
<circle r="3.5" transform="matrix(1 0 0 -1 146.056 25.1777)" fill="#EB5757"/>
</g>
<defs>
<clipPath id="clip0_139_831">
<rect width="149.56" height="28.68" fill="white"/>
</clipPath>
</defs>
</svg>
